<svg width="680" height="782" fill="none" xmlns="http://www.w3.org/2000/svg"><mask id="mask0" maskUnits="userSpaceOnUse" x="85" y="0" width="479" height="598"><path d="M239.674 159.459c-18.179 35.251-27.269 81.795-27.269 139.629 0 57.835 9.09 104.378 27.269 139.63 18.18 35.252 46.551 52.878 85.113 52.878 38.563 0 66.934-17.626 85.114-52.878 18.179-35.252 27.269-81.795 27.269-139.63 0-57.834-9.09-104.378-27.269-139.629-18.18-35.252-46.551-52.878-85.114-52.878-38.562 0-66.933 17.626-85.113 52.878zm85.113 437.892c-79.879 0-139.652-26.99-179.316-80.969-39.665-54.53-59.497-126.961-59.497-217.294 0-90.883 19.832-163.314 59.497-217.293C185.135 27.265 244.908 0 324.787 0c79.88 0 139.653 27.265 179.317 81.795 39.665 53.979 59.497 126.41 59.497 217.293 0 90.333-19.832 162.764-59.497 217.294-39.664 53.979-99.437 80.969-179.317 80.969z" fill="#F8E71C"/></mask><g mask="url(#mask0)"><path d="M239.674 159.459c-18.179 35.251-27.269 81.795-27.269 139.629 0 57.835 9.09 104.378 27.269 139.63 18.18 35.252 46.551 52.878 85.113 52.878 38.563 0 66.934-17.626 85.114-52.878 18.179-35.252 27.269-81.795 27.269-139.63 0-57.834-9.09-104.378-27.269-139.629-18.18-35.252-46.551-52.878-85.114-52.878-38.562 0-66.933 17.626-85.113 52.878zm85.113 437.892c-79.879 0-139.652-26.99-179.316-80.969-39.665-54.53-59.497-126.961-59.497-217.294 0-90.883 19.832-163.314 59.497-217.293C185.135 27.265 244.908 0 324.787 0c79.88 0 139.653 27.265 179.317 81.795 39.665 53.979 59.497 126.41 59.497 217.293 0 90.333-19.832 162.764-59.497 217.294-39.664 53.979-99.437 80.969-179.317 80.969z" fill="#F8E71C"/><path opacity=".5" fill-rule="evenodd" clip-rule="evenodd" d="M111.635 100.708l221.357-127.78 10.33 17.887-221.358 127.781-10.329-17.888zm-27.914 59.145l305.77-176.508 10.33 17.888L94.051 177.74l-10.33-17.888zm-22.748 56.163L436.127-.544l10.329 17.888-375.154 216.56-10.33-17.888zm21.633 30.544L469.904 22.99l10.329 17.888-387.298 223.57-10.33-17.888zm13.2 35.413l403.249-232.78 10.329 17.889L106.135 299.86l-10.33-17.887zm-16.53 52.573L519.247 80.569l10.329 17.888L89.605 352.434l-10.33-17.888zm2.509 41.584l455.303-262.827 10.329 17.888L92.114 394.018l-10.33-17.888zm-1.118 43.677l468.358-270.364 10.329 17.888L90.996 437.695l-10.33-17.888zm15.474 34.099l472.628-272.828 10.329 17.888L106.47 471.794l-10.33-17.888zm21.257 30.761L568.769 224.11l10.329 17.888-451.37 260.557-10.33-17.888zm51.98 13.026l399.391-230.551 10.329 17.888-399.39 230.551-10.33-17.888zm28.167 26.772l371.224-214.291 10.329 17.888-371.224 214.291-10.329-17.888zm78.749-2.426l292.475-168.833 10.329 17.888-292.475 168.833-10.329-17.888zm-43.435 68.104l321.246-185.441 10.33 17.888-321.246 185.441-10.33-17.888zm-24.035 56.517l328.101-189.399 10.329 17.888-328.101 189.399-10.329-17.888z" fill="#fff"/></g><path d="M224.335 431.093l-22.38 33.564 26.042 14.464" stroke="#fff" stroke-width="13" stroke-linecap="square"/><path fill-rule="evenodd" clip-rule="evenodd" d="M396.037 372.616l40.749-47.208c24.822 64.934 41.999 113.401 51.53 145.4 5.265 17.676 3.45 30.026-3.508 36.839-4.639 4.542-9.348 8.2-14.127 10.975 23.227 17.886 34.34 30.33 33.338 37.331-10.483 73.249-69.988-26.824-71.349-29.758-1.745-3.765-13.956-54.958-36.633-153.579z" fill="#fff"/><path d="M89.476 336.066v-37.799h46.482v37.799h24.48v41.827h-24.48v51.741H89.476v-51.741H2.4v-36.87l77.16-127.959h55.513L61.631 336.066h27.845z" fill="#fff"/><path d="M79.82 332.843v-34.65h42.608v34.65h22.44v38.341h-22.44v47.43H79.82v-47.43H0v-33.797l70.73-117.296h48.289l-67.32 112.752h28.12z" fill="#2EF8CF"/><path fill-rule="evenodd" clip-rule="evenodd" d="M578.544 172.311l-95.649 158.621v59.402h95.649v-67.388h-4.786l4.786-8.016V172.311z" fill="#fff"/><path d="M597.014 325.543v-44.204h54.357v44.204H680v48.914h-28.629v60.509h-54.357v-60.509H495.183V331.34l90.234-149.642h61.606l-85.886 143.845h35.877z" fill="#DCBAFF"/><path fill-rule="evenodd" clip-rule="evenodd" d="M468.305 678.625l27.001-30.225 43.052 14.288-36.373 104.617a.862.862 0 0 1-1.671-.216c-1.492-19.364-4.16-36.299-8.003-50.804-1.993-7.52-9.995-20.074-24.006-37.66z" fill="#F8E71C"/><path d="M519.943 673.6c1.668-5.132-1.141-10.644-6.274-12.312-5.133-1.668-10.647 1.141-12.315 6.273-1.668 5.133 1.141 10.645 6.275 12.313 5.133 1.668 10.646-1.141 12.314-6.274z" fill="#fff"/><path d="M516.314 677.745a9.181 9.181 0 0 0-17.462-5.673c-1.567 4.821 1.072 9.999 5.894 11.566a9.18 9.18 0 0 0 11.568-5.893z" stroke="#000" stroke-width="3"/><path clip-rule="evenodd" d="M459.468 679.519c14.806 14.631 23.213 25.702 25.248 33.382 3.878 14.636 7.854 35.413 11.933 62.344l39.829-120.161-48.075-15.619-28.935 40.054h0z" stroke="#000" stroke-width="3"/><path d="M532.051 657.849l-36.957 113.724a6.646 6.646 0 0 0 12.642 4.107l36.957-113.724a6.646 6.646 0 0 0-12.642-4.107z" fill="#fff" stroke="#000" stroke-width="3"/><path d="M496.191 704.259l-11.183 4.978a1.147 1.147 0 1 0 .934 2.097l11.182-4.978a1.147 1.147 0 1 0-.933-2.097z" fill="#000"/><path d="M497.21 711.025l-11.183 4.978a1.147 1.147 0 1 0 .934 2.096l11.182-4.978a1.147 1.147 0 1 0-.933-2.096z" fill="#000"/><path d="M499.193 717.299l-11.183 4.978a1.147 1.147 0 1 0 .934 2.096l11.182-4.978a1.147 1.147 0 1 0-.933-2.096z" fill="#000"/><path fill-rule="evenodd" clip-rule="evenodd" d="M170.385 672.475l-26.469-30.692-43.295 13.535 34.542 105.236a.86.86 0 1 0 1.675-.187c1.829-19.335 4.792-36.221 8.888-50.657 2.124-7.484 10.343-19.896 24.659-37.235z" fill="#F8E71C"/><path d="M121.015 665.826c-1.578-5.161 1.327-10.624 6.488-12.201 5.162-1.578 10.625 1.326 12.203 6.487 1.578 5.161-1.327 10.623-6.488 12.201-5.162 1.578-10.625-1.327-12.203-6.487z" fill="#fff"/><path d="M124.571 670.033a9.178 9.178 0 0 1 6.095-11.462 9.18 9.18 0 0 1 5.368 17.556c-4.848 1.482-9.981-1.246-11.463-6.094z" stroke="#000" stroke-width="3"/><path clip-rule="evenodd" d="M179.206 673.523c-15.059 14.37-23.659 25.293-25.827 32.937-4.133 14.565-8.471 35.27-13.02 62.126l-37.725-120.839 48.34-14.777 28.232 40.553h0z" stroke="#000" stroke-width="3"/><path d="M107.011 650.589l34.967 114.352a6.646 6.646 0 0 1-12.712 3.885L94.299 654.475a6.646 6.646 0 1 1 12.712-3.886z" fill="#fff" stroke="#000" stroke-width="3"/><path d="M142.479 696.833l11.094 5.173a1.146 1.146 0 1 1-.97 2.079l-11.094-5.172a1.148 1.148 0 0 1 .97-2.08z" fill="#000"/><path d="M141.342 703.58l11.094 5.172a1.147 1.147 0 1 1-.97 2.08l-11.094-5.172a1.148 1.148 0 0 1 .97-2.08z" fill="#000"/><path d="M139.25 709.819l11.094 5.172a1.148 1.148 0 0 1-.97 2.08l-11.094-5.173a1.146 1.146 0 1 1 .97-2.079z" fill="#000"/><path fill-rule="evenodd" clip-rule="evenodd" d="M214.726 334.612l26.734 28.693-68.865 135.726c-14.797-.087-23.666-1.512-26.607-4.273-4.412-4.142-14.299-18.087-9.341-29.477 6.974-16.017 24.902-47.476 60.685-107.438 1.869-3.133 7.667-10.876 17.394-23.231z" fill="#fff"/><path d="M340.288 636.324l1.086 1.086" stroke="#979797" stroke-linecap="square"/><path fill-rule="evenodd" clip-rule="evenodd" d="M200.664 373.244l44.348 22.714-52.031 76.704-44.515-13.378 52.198-86.04z" fill="#fff"/><path fill-rule="evenodd" clip-rule="evenodd" d="M197.05 373.054l39.919 19.884-48.443 78.567-45.314-4.993c1.714-4.952 3.105-8.355 4.173-10.209 1.069-1.855 17.623-29.605 49.665-83.249z" fill="#FFE7EA"/><path clip-rule="evenodd" d="M201.145 374.941l-50.71 83.587 42.009 12.625 50.68-74.711-41.979-21.501z" stroke="#000" stroke-width="3"/><path fill-rule="evenodd" clip-rule="evenodd" d="M385.337 375.198l52.143-15.461c17.226 43.769 30.605 81.654 40.136 113.653 5.265 17.676 3.45 30.026-3.508 36.839-4.639 4.542-11.478 6.305-20.516 5.288l-68.255-140.319z" fill="#fff"/><path fill-rule="evenodd" clip-rule="evenodd" d="M378.822 375.198l52.143-15.461c17.226 43.769 30.604 81.654 40.136 113.653 5.265 17.676 3.45 30.026-3.509 36.839-4.639 4.542-11.477 6.305-20.515 5.288l-68.255-140.319z" fill="#FFE7EA"/><path clip-rule="evenodd" d="M387.164 376.002l67.276 138.306c8.328.811 14.551-.876 18.764-5.001 6.822-6.68 8.142-18.874 3.175-35.548-9.44-31.692-22.663-69.176-39.667-112.448l-49.548 14.691z" stroke="#000" stroke-width="3"/><path fill-rule="evenodd" clip-rule="evenodd" d="M325.042 279.823c21.915 0 39.68-14.7 39.68-32.834 0-18.133-8.613-35.657-30.529-35.657-3.629 0-18.656 1.081-18.656 9.964-17.269-9.964-28.909.893-28.909 16.023 0 18.134 16.499 42.504 38.414 42.504z" fill="#000"/><path fill-rule="evenodd" clip-rule="evenodd" d="M291.078 233.705l20.435 4.369v42.244c-3.4 1.721-8.267 1.721-14.602 0-6.335-1.721-12.212-4.807-17.631-9.26 5.132.01 9.065-3.114 11.798-9.372 2.733-6.257 2.733-15.585 0-27.981z" fill="#000"/><path fill-rule="evenodd" clip-rule="evenodd" d="M354.074 227.657l-12.058 1.759-5.149 41.93c3.164 2.122 7.995 2.715 14.492 1.779 6.498-.936 12.707-3.284 18.628-7.043-3.726-.913-6.564-4.641-8.514-11.185-1.95-6.545-4.416-15.625-7.399-27.24z" fill="#000"/><path fill-rule="evenodd" clip-rule="evenodd" d="M308.065 268.206c-.549 12.709-.934 21.234-1.156 25.58-.226 4.422-.985 12.451-2.278 24.105 5.5 8.238 10.519 12.592 14.916 13.158 4.423.571 13.663-3.332 27.392-11.735-3.24-7.87-5.251-13.584-6.04-17.183-.797-3.636-1.347-8.167-1.653-13.601-9.064-10.489-15.465-16.889-19.082-19.123-3.273-2.022-7.283-2.437-12.099-1.201z" fill="#fff" stroke="#000" stroke-width="3"/><path fill-rule="evenodd" clip-rule="evenodd" d="M313.458 265.181c.149-.267 2.128.776 5.936 3.127 3.808 2.352 10.365 8.923 19.669 19.712.298 5.565.848 10.177 1.65 13.834.802 3.658 2.932 9.652 6.392 17.983-14.512 8.965-24.236 13.129-29.171 12.493-4.935-.636-7.756-5.417-8.463-14.343 1.112-10.33 1.782-17.719 2.009-22.167.227-4.447.886-14.66 1.978-30.639z" fill="#FFE7EA"/><path clip-rule="evenodd" d="M308.065 268.206c-.549 12.709-.934 21.234-1.156 25.58-.226 4.422-.985 12.451-2.278 24.105 5.5 8.238 10.519 12.592 14.916 13.158 4.423.571 13.663-3.332 27.392-11.735-3.24-7.87-5.251-13.584-6.04-17.183-.797-3.636-1.347-8.167-1.653-13.601-9.064-10.489-15.465-16.889-19.082-19.123-3.273-2.022-7.283-2.437-12.099-1.201z" stroke="#000" stroke-width="3"/><path opacity=".2" fill-rule="evenodd" clip-rule="evenodd" d="M327.012 287.366l11.531-3.591.933 12.905a42.331 42.331 0 0 1-5.777-3.632 70.864 70.864 0 0 1-6.687-5.682z" fill="#FE6175"/><path fill-rule="evenodd" clip-rule="evenodd" d="M345.457 286.222c11.86-4.791 15.671-15.907 10.736-36.941-.97-4.135-.79-11.768-2.831-14.641-13.428.74-22.865-.852-34.52-4.929.851 8.881-.22 17.864-6.374 25.639-9.6-6.069-13.594 1.422-13.879 4.132-.621 5.898 6.722 14.162 15.095 11.65 6.721 16.632 19.913 19.881 31.773 15.09z" fill="#fff" stroke="#000" stroke-width="3"/><path fill-rule="evenodd" clip-rule="evenodd" d="M340.39 284.05c11.86-4.791 15.67-15.906 10.736-36.941-.97-4.134-.486-9.126-2.527-12-13.428.74-17.309-1.322-28.964-5.398.852 8.88-.598 17.731-6.752 25.506-9.6-6.069-13.923.704-14.208 3.414-.621 5.898 5.951 12.651 9.7 12.073 6.721 16.632 20.155 18.137 32.015 13.346z" fill="#FFE7EA"/><path clip-rule="evenodd" d="M345.457 286.222c11.86-4.791 15.671-15.907 10.736-36.941-.97-4.135-.79-11.768-2.831-14.641-13.428.74-22.865-.852-34.52-4.929.851 8.881-.22 17.864-6.374 25.639-9.6-6.069-13.594 1.422-13.879 4.132-.621 5.898 6.722 14.162 15.095 11.65 6.721 16.632 19.913 19.881 31.773 15.09z" stroke="#000" stroke-width="3"/><path fill-rule="evenodd" clip-rule="evenodd" d="M326.781 289.008c.697-9.217 9.845-5.148 6.671-13.002-3.174-7.854-9.992-12.506-15.229-10.39-5.237 2.115-6.909 10.197-3.736 18.051 3.174 7.854 11.597 14.557 12.294 5.341z" fill="#FFE7EA"/><path fill-rule="evenodd" clip-rule="evenodd" d="M350.062 244.282c1.691.185 2.53-1.414 2.305-2.385-.224-.972-1.587-1.509-2.882-1.21-1.295.299-2.485.513-2.261 1.484.224.971 1.146 1.926 2.838 2.111z" fill="#000"/><path d="M344.239 245.7c.137 2.799.339 4.874.607 6.223.545 2.741 1.804 5.898 1.99 6.853.323 1.661-.446 3.256-2.308 4.783" stroke="#000" stroke-width="3" stroke-linecap="round"/><path d="M331.799 266.295c1.248 2.633 2.815 4.512 4.7 5.636 1.885 1.124 4.109 1.124 6.673 0" stroke="#000" stroke-width="3" stroke-linecap="round"/><path fill-rule="evenodd" clip-rule="evenodd" d="M333.48 251.106c-1.135.242-1.585 1.232-1.343 2.369.242 1.138 1.097 1.92 1.909 1.747.813-.173 1.398-.779 1.157-1.916-.242-1.137-.588-2.441-1.723-2.2z" fill="#000"/><path fill-rule="evenodd" clip-rule="evenodd" d="M351.478 252.255c1.158-.081 1.238-.791 1.157-1.951-.081-1.16-.588-1.829-1.417-1.771-.829.058-1.493.577-1.412 1.737.081 1.16.514 2.066 1.672 1.985z" fill="#000"/><path fill-rule="evenodd" clip-rule="evenodd" d="M331.503 244.35c2.263-1.054 3.848-2.677 3.289-3.875-.558-1.198-2.652-.666-5.17-.159s-3.671 2.823-3.112 4.02c.559 1.198 2.731 1.069 4.993.014z" fill="#000"/><path d="M304.743 260.357c1.497-.266 2.652-.352 3.465-.258.813.094 2.154.47 4.023 1.126" stroke="#000" stroke-width="3" stroke-linecap="round"/><path fill-rule="evenodd" clip-rule="evenodd" d="M314.496 222.16c.417-.144 1.37-1.051 2.591-11.567s-5.678-18.441-14.84-14.324c-9.161 4.117.122 11.198 6.53 16.699 6.408 5.502 5.301 9.335 5.719 9.192z" fill="#000"/><path fill-rule="evenodd" clip-rule="evenodd" d="M314.86 221.619c2.402-.51 3.047-1.91 2.677-3.652-.37-1.741-1.276-.435-3.678.075-2.402.511-2.975-.158-2.605 1.584.37 1.741 1.203 2.504 3.606 1.993z" fill="#5AFFDF"/><path fill-rule="evenodd" clip-rule="evenodd" d="M271.395 429.827l87.854 4.47c3.124-12.441 5.293-20.956 6.507-25.546 3.482-13.174 4.283-15.129 35.594-20.181 12.179-1.965 34.664-2.267 45.841-12.301-19.291-48.277-62.571-57.804-67.136-59.139-6.2-1.812-20.385-4.798-33.892-4.722-3.628 2.618-13.597 8.454-24.331 8.454s-14.32-3.581-17.736-8.454c-33.746.607-81.557 13.559-108.726 63.861 7.458 6.1 20.195 12.995 38.211 20.684 9.773-11.165 15.4-18.059 16.881-20.684 2.862 17.624 10.04 20.266 14.149 32.482 2.066 6.143 4.327 13.168 6.784 21.076z" fill="#fff"/><path fill-rule="evenodd" clip-rule="evenodd" d="M272.843 435.618h80.333c3.416-12.075 5.731-20.407 6.944-24.997 1.499-5.67 3.694-20.659 8.218-22.574 5.988-2.535 10.729 12.058 28.564 9.18 12.18-1.965 35.518-8.255 46.695-18.289-6.773-16.95-16.965-28.585-26.131-36.804-16.943-15.192-33.001-18.347-35.964-19.213-6.199-1.812-20.385-4.798-33.892-4.722-3.627 2.618-13.596 8.454-24.33 8.454-10.734 0-17.865-3.582-21.281-8.454-33.746.606-73.447 6.936-100.616 57.238 7.766 5.608 20.215 11.043 37.347 16.307 7.305-3.832 11.699-7.06 13.18-9.685 2.862 17.625 10.04 20.266 14.149 32.483 2.066 6.142 4.327 13.167 6.784 21.076z" fill="#FFE54C"/><path clip-rule="evenodd" d="M272.573 441.169l86.676-6.872c3.124-12.441 5.293-20.956 6.507-25.546 3.482-13.174 7.864-6.746 39.175-11.798 12.179-1.965 31.402-10.131 42.58-20.165-19.292-48.276-62.891-58.323-67.456-59.658-6.2-1.812-20.385-4.798-33.892-4.722-3.628 2.618-13.597 8.454-24.331 8.454s-14.32-3.581-17.736-8.454c-33.746.607-81.557 13.559-108.726 63.861 7.458 6.1 20.195 12.995 38.211 20.684 9.773-11.165 15.4-18.059 16.881-20.684 2.862 17.624 10.04 20.266 14.149 32.482 2.066 6.143 4.72 16.949 7.962 32.418z" stroke="#000" stroke-width="3"/><path fill-rule="evenodd" clip-rule="evenodd" d="M272.965 433.285h83.418c-2.182-.637-2.182.135 0 2.319 3.271 3.275 73.848 57.91 130.953 107.928 23.031 20.173 3.189 62.135-26.748 74.058 5.368 2.517 19.998 8.742 43.893 18.673l-38.52 72.066c-63.889-27.089-107.88-45.505-131.972-55.25-29.439 8.991-85.101 25.6-166.988 49.828l-27.887-75.45c32.415-11.097 56.861-19.489 73.336-25.176-23.849-8.625-38.527-15.481-51.069-21.38-45.66-21.473-23.882-56.735-12.193-64.075 52.389-32.897 117.827-69.704 119.001-75.408.783-3.802 2.375-6.513 4.776-8.133z" fill="#fff"/><path fill-rule="evenodd" clip-rule="evenodd" d="M276.293 438.176c16.204 3.426 28.834 4.951 37.89 4.574 9.057-.377 22.294-1.902 39.713-4.574l-3.114 4.574c54.205 41 100.342 78.173 138.411 111.519 20.818 18.234 6.934 53.703-22.283 67.925-17.054-7.388-46.826-19.311-49.852-18.312-3.02.998 6.513 11.131 25.879 18.312 5.367 2.518 26.174 10.258 62.42 23.221l-36.54 70.626c-65.777-27.159-110.712-45.61-134.804-55.355-29.439 8.991-81.731 24.753-156.877 47.288L149.249 631.8c33.913-11.699 59.107-20.392 75.583-26.08-23.849-8.625-42.217-17.301-54.76-23.2-45.66-21.474-28.976-52.314-13.999-60.752 54.589-30.758 117.457-69.58 118.632-75.283.783-3.803 1.312-6.572 1.588-8.309z" fill="#DCBAFF"/><path d="M493.01 568.795c-1.068 10.852-6.104 19.161-15.106 24.927-8.308 5.321-19.123 10.993-32.443 17.015" stroke="#fff" stroke-width="3" stroke-linecap="round" stroke-linejoin="round" stroke-dasharray="4 6"/><path d="M305.621 626.321l164.022 66.029" stroke="#fff" stroke-width="3" stroke-linecap="round" stroke-dasharray="4 6"/><path d="M215.906 602.263l117.143 49.261" stroke="#000" stroke-width="3" stroke-linecap="round"/><path clip-rule="evenodd" d="M273.963 432.846c-2.313 2.511-3.812 5.448-4.509 8.832-.568 2.761-9.562 9.034-29.8 21.553-10.73 6.638-56.915 34.461-62.524 37.875-3.241 1.972-6.34 3.864-9.334 5.701a2006.692 2006.692 0 0 0-17.921 11.112c-6.837 4.294-13.794 15.233-14.811 25.768-1.354 14.028 6.863 26.639 26.866 36.046 19.265 9.061 31.226 14.197 50.959 21.334l3.435 1.242-3.453 1.192c-16.263 5.614-40.292 13.864-72.087 24.749l27.009 73.077c81.25-24.042 136.524-40.536 165.819-49.483l.437-.133.424.171c23.965 9.693 67.602 27.96 130.915 54.801l39.103-71.747c-24.052-8.475-38.7-13.943-44.019-16.438l-2.698-1.266 2.769-1.102c14.189-5.652 26.52-18.486 32.298-33.081 5.982-15.111 4.013-29.464-6.356-38.546-4.606-4.035-9.392-8.18-14.35-12.431-4.832-4.144-9.819-8.38-14.954-12.706-21.221-17.877-43.288-35.899-68.313-55.967-6.522-5.23-24.982-19.974-23.216-18.561-6.672-5.337-9.506-7.644-10.183-8.322-1.217-1.218-1.98-2.235-2.293-3.139a2.995 2.995 0 0 1-.134-.531h-79.079z" stroke="#000" stroke-width="3"/><path fill-rule="evenodd" clip-rule="evenodd" d="M392.123 430.271c-2.643-2.399-3.88-10.705 9.953-9.344 10.517-12.616 19.005-31.702 19.379-44.886-11.119 4.201-31.56 8.789-47.917 18.629-16.357 9.84-31.389 25.329-31.389 45.003 15.983 1.788 35.395.444 49.974-9.402z" fill="#fff"/><path fill-rule="evenodd" clip-rule="evenodd" d="M395.096 437.133c-2.558-2.49-3.504-10.833 10.273-8.991 10.951-12.241 20.1-31.019 20.934-44.182-11.258 3.81-31.737 5.35-48.427 14.613-16.691 9.263-36.036 26.72-36.723 46.382 15.911 2.345 39.03 1.51 53.943-7.822z" fill="#2EF8CF"/><path clip-rule="evenodd" d="M392.123 430.271c-2.643-2.399-3.88-10.705 9.953-9.344 10.517-12.616 19.005-31.702 19.379-44.886-11.119 4.201-31.56 8.789-47.917 18.629-16.357 9.84-31.389 25.329-31.389 45.003 15.983 1.788 35.395.444 49.974-9.402z" stroke="#000" stroke-width="3"/><path d="M333.453 456.147c6.616-14.847 17.527-29.138 32.735-42.874 15.209-13.736 33.394-25.243 54.556-34.522" stroke="#000" stroke-width="3" stroke-linecap="round"/><path fill-rule="evenodd" clip-rule="evenodd" d="M268.861 462.982c1.769-2.456 1.331-9.562-9.903-5.995-10.948-8.61-22.19-20.038-24.825-30.907 9.963 1.524 28.563-1.181 43.865 4.097 15.303 5.278 30.502 15.476 33.971 31.794-12.941 4.301-29.279 6.608-43.108 1.011z" fill="#fff"/><path fill-rule="evenodd" clip-rule="evenodd" d="M259.878 469.237c-12.68-6.418-23.635-20.587-27.391-31.121 10.067.474 28.883-4.117 44.653-.467 15.77 3.649 30.823 15.138 35.979 31.004-12.421 5.63-36.058 9.281-53.241.584z" fill="#2EF8CF"/><path clip-rule="evenodd" d="M258.796 460.092c-11.94-7.708-21.353-22.944-23.988-33.813 9.962 1.524 29.156-1.075 44.458 4.203 15.302 5.278 29.071 18.277 32.541 34.595-12.942 4.301-36.831 5.461-53.011-4.985z" stroke="#000" stroke-width="3"/><path d="M322.17 478.778c-8.269-12.194-19.922-22.648-34.958-31.36-15.036-8.712-32.149-15.051-51.338-19.016" stroke="#000" stroke-width="3" stroke-linecap="round"/><path d="M297.608 396.309c4.132 3.917 7.244 7.427 9.337 10.527 5.773 8.554 8.209 15.003 8.209 19.399 0 12.434-11.55 10.877-13.139 8.652-6.231-8.729 17.974-11.965 23.658 6.576 2.829 9.228 2.829 21.161 0 35.798" stroke="#2EF8CF" stroke-width="10" stroke-linecap="round"/><path d="M307.46 435.13c2.599 0 4.706-1.458 4.706-3.257 0-1.799-2.107-3.257-4.706-3.257s-4.705 1.458-4.705 3.257c0 1.799 2.106 3.257 4.705 3.257z" fill="#2EF8CF"/><path fill-rule="evenodd" clip-rule="evenodd" d="M285.114 398.647l8.094-11.944c.898.584 8.083 6.455 13.998 13.833 5.915 7.379 8.947 16.706 9.095 27.983-3.654-.272-5.851-1.508-6.592-3.709-2.701-8.026-8.973-12.648-12.723-14.719-4.978-2.748-15.073-4.637-22.729-1.889l10.857-9.555z" fill="#2EF8CF"/><path fill-rule="evenodd" clip-rule="evenodd" d="M206.508 408.59c31.445 16.719 70.487 4.783 87.204-26.658 16.717-31.442 4.779-70.484-26.666-87.203-16.589-8.82-38.298-10.647-55.795-1.458 0 0 .001 19.799 10.805 37.243 5.949 9.604 12.994 17.789 21.137 24.557-9.447 5.74-18.855 9.327-28.222 10.761-10.716 1.639-23.162 1.639-40.733-.001 5.065 18.542 16.637 34.447 32.27 42.759z" fill="#fff"/><path fill-rule="evenodd" clip-rule="evenodd" d="M202.072 413.914c31.444 16.719 72.34 8.148 89.057-23.294 16.717-31.441 2.925-73.848-28.52-90.566-16.589-8.821-38.58-7.851-56.077 1.338 0 0 .283 17.002 11.087 34.446 5.949 9.604 12.995 18.677 21.138 27.219-9.448 4.557-18.856 7.552-28.223 8.986-10.715 1.64-23.162.752-40.732-.888 5.064 18.543 16.637 34.447 32.27 42.759z" fill="#2EF8CF"/><path clip-rule="evenodd" d="M206.508 408.59c31.445 16.719 70.487 4.783 87.204-26.658 16.717-31.442 4.779-70.484-26.666-87.203-16.589-8.82-38.298-10.647-55.795-1.458 0 0 .001 19.799 10.805 37.243 5.949 9.604 12.994 17.789 21.137 24.557-9.447 5.74-18.855 9.327-28.222 10.761-10.716 1.639-23.162 1.639-40.733-.001 5.065 18.542 16.637 34.447 32.27 42.759z" stroke="#000" stroke-width="3"/><path d="M247.528 317.33c-1.516 1.989-1.702 3.945-.558 5.867 1.716 2.883 6.931 4.604 13.243 1.44" stroke="#000" stroke-width="3" stroke-linecap="round"/><path d="M236.349 299.043c-1.126 1.478-1.264 2.932-.414 4.361 1.275 2.143 5.151 3.421 9.842 1.07" stroke="#000" stroke-width="3" stroke-linecap="round"/><path fill-rule="evenodd" clip-rule="evenodd" d="M300.87 334.555l13.463-5.425 3.449 3.504c-5.552 5.846-9.321 9.055-11.306 9.626-1.986.571-4.045.571-6.176 0l.57-7.705z" fill="#fff"/><path d="M293.966 341.935c3.744 2.477 7.571 2.841 11.482 1.094 4.546-2.03 8.587-5.335 12.122-9.915" stroke="#000" stroke-width="3" stroke-linecap="round"/><path fill-rule="evenodd" clip-rule="evenodd" d="M310.496 359.797c12.037-5.149 18.437-11.783 19.057-16.829-.684-1.151-1.682-2.371-2.993-3.659-5.76 4.57-11.115 6.551-16.065 5.944-9.334-1.146-15.561-5.045-16.181 0-.234 1.902 2.739 6.38 3.627 9.677.724 2.688.737 4.168 2.055 6.136 2.409 1.393 6.702.356 10.5-1.269z" fill="#fff"/><path d="M300.261 361.361c6.87.146 12.644-1.339 17.321-4.453 5.437-3.62 9.405-7.871 11.904-12.752" stroke="#000" stroke-width="3" stroke-linecap="round"/><path fill-rule="evenodd" clip-rule="evenodd" d="M305.355 356.793c12.799-2.759 19.664-12.798 21.235-17.632-4.799 2.206-9.289 6.105-18.233 3.199-8.945-2.905-16.012-10.546-17.583-5.712-1.571 4.835 1.783 22.903 14.581 20.145z" fill="#2EF8CF"/><path fill-rule="evenodd" clip-rule="evenodd" d="M298.51 340.363c9.883-1.489 14.906-8.193 15.973-11.478-3.668 1.367-7.039 3.912-14.102 1.617-7.062-2.294-12.821-6.041-17.307-8.36-4.485-2.319 5.554 19.71 15.436 18.221z" fill="#2EF8CF"/><path d="M358.049 479.469h-67.944v9.145h67.944v-9.145z" fill="#fff"/><path d="M363.71 481.896h-71.179v9.145h71.179v-9.145z" fill="#F8E71C"/><path d="M359.34 478.178h-70.527v11.727h70.527v-11.727z" stroke="#000" stroke-width="3"/><path fill-rule="evenodd" clip-rule="evenodd" d="M300.62 547.962h46.913l6.47-56.921h-59.854l6.471 56.921z" fill="#fff"/><path fill-rule="evenodd" clip-rule="evenodd" d="M305.473 547.962h48.53l6.471-56.921h-61.472l6.471 56.921z" fill="#F8E71C"/><path d="M309.555 527.041c9.736 1.729 17.564.889 23.482-2.521 8.878-5.116 17.566-14.003 19.542-16.689 1.977-2.685-.469-6.24-3.912-3.494-3.443 2.747-4.965 4.166-8.104 8.383-3.138 4.217-10.391 19.097-2.857 19.097 3.895 0 10.441-4.937 19.638-9.485" stroke="#fff" stroke-width="4"/><path d="M338.479 497.601h-25.571a2.582 2.582 0 0 0-2.582 2.582v16.671a2.582 2.582 0 0 0 2.582 2.582h25.571a2.582 2.582 0 0 0 2.583-2.582v-16.671a2.582 2.582 0 0 0-2.583-2.582z" fill="#2EF8CF"/><path d="M325.921 507.881l10.419-6.725.017-.011c.502-.313 1.112-.242 1.363.16.256.411.055 1.003-.454 1.332l-10.499 6.775-.016.011c-.349.218-.751.25-1.047.114a1.346 1.346 0 0 1-.606-.194l-10.954-6.547c-.504-.302-.729-.863-.503-1.254l.011-.017c.248-.396.86-.464 1.381-.153l10.888 6.509z" fill="#000"/><path clip-rule="evenodd" d="M299.467 549.253h49.218l6.765-59.503h-62.747l6.764 59.503z" stroke="#000" stroke-width="3"/><path d="M244.398 355.621a11.07 11.07 0 0 0 2.495 1.368c1.017.396 1.911.591 2.682.585" stroke="#000" stroke-width="3" stroke-linecap="round"/><path d="M292.778 385.333c10.389 9.445 16.928 16.785 19.02 19.886 5.773 8.553 8.209 15.002 8.209 19.398 0 12.434-11.55 10.878-13.138 8.652-6.231-8.728 17.411-11.817 23.095 6.724 2.829 9.228 3.016 21.699.562 37.412" stroke="#000" stroke-width="3" stroke-linecap="round"/><path fill-rule="evenodd" clip-rule="evenodd" d="M377.208 565.752c22.59 0 40.902-9.235 40.902-20.628 0-2.846 2.066-7.134 0-9.23-6.206-6.295-23.954-7.443-40.902-7.443-22.589 0-40.902 5.28-40.902 16.673 0 11.393 18.313 20.628 40.902 20.628z" fill="#DCBAFF"/><path d="M415.576 534.267c-16.021-4.053-29.776-5.753-41.263-5.1-11.488.654-25.122 2.947-40.902 6.878" stroke="#000" stroke-width="3" stroke-linecap="round"/><path d="M414.852 537.886c-16.021-4.053-29.776-5.753-41.263-5.099-11.488.654-25.122 2.946-40.902 6.878" stroke="#fff" stroke-width="6" stroke-linecap="round"/><path fill-rule="evenodd" clip-rule="evenodd" d="M268.549 507.233c23.123 2.559 42.986 8.328 59.591 17.305 33.77 18.257 39.316 46.868 78.054 71.042 11.095 6.924 28.138 14.253 51.129 21.986l-28.177-1.225c-54.806-18.363-100.81-40.181-138.01-65.455-16.332-11.096-23.861-25.647-22.587-43.653z" fill="#DCBAFF"/><path d="M269.617 507.623c23.215 1.133 43.831 7.616 61.846 19.448 25.145 16.516 47.382 51.736 79.757 71.304 9.618 5.813 26.013 12.52 49.186 20.12" stroke="#000" stroke-width="3" stroke-linecap="round"/><path d="M271.156 513.143c20.593.743 39.898 7.03 57.913 18.863 13.943 9.158 26.544 24.079 40.922 38.881 11.553 11.893 23.97 23.179 38.393 31.897 9.618 5.814 25.813 12.618 48.585 20.414" stroke="#fff" stroke-width="9" stroke-linecap="round"/><path fill-rule="evenodd" clip-rule="evenodd" d="M192.111 464.628c43.477 16.325 134.955 92.875 174.171 113.145 1.818 1.029 19.137-.626 27.651 1.912.862.257 15.715 8.363 17.129 11.775.647 1.561-1.768 2.654-5.679.719 1.302 1.439 6.522 7.558 5.786 8.265-1.202 1.154-3.223 1.621-8.512-2.015 1.451 3.063 3.116 5.509 2.979 6.85-.099.96-2.107 1.529-4.387-.156-2.851-2.109-7.007-6.696-9.303-8.535-.997-.799-1.41.354-1.755.008 2.298 2.984 3.777 4.884 2.701 7.188-.986 2.108-2.86 3.76-4.385 5.449-.302.334-1.319-.118-1.987-1.831-.266-.685.909-2.66.495-4.629-.124-.593-.831-1.396-2.12-2.41-7.434 2.437-12.807 3.471-16.119 3.104-8.196-.909-14.444-6.124-17.285-7.301-34.148-14.156-66.623-31.893-96.367-45.881-31.349-14.742-59.684-25.711-84.493-39.731-8.225-4.648-28.507-18.703-24.48-42.563 4.026-23.861 35.312-7.26 45.96-3.363z" fill="#fff"/><path fill-rule="evenodd" clip-rule="evenodd" d="M188.042 466.311c43.476 16.324 134.955 92.874 174.17 113.144 1.818 1.03 19.137-.625 27.652 1.912.862.257 15.714 8.363 17.128 11.775.647 1.561-1.768 2.654-5.679.72 1.303 1.438 6.522 7.557 5.786 8.264-1.202 1.155-3.222 1.621-8.511-2.015 1.451 3.063 3.115 5.509 2.978 6.85-.098.96-2.107 1.53-4.386-.156-2.852-2.108-7.007-6.696-9.303-8.535-.997-.799-1.41.354-1.755.009 2.297 2.983 3.777 4.883 2.7 7.187-.985 2.109-2.86 3.76-4.385 5.449-.301.334-1.319-.118-1.986-1.831-.267-.685.908-2.66.495-4.629-.125-.592-.831-1.395-2.12-2.41-7.434 2.437-12.807 3.472-16.12 3.104-8.195-.908-14.444-6.124-17.284-7.301-34.148-14.156-68.069-30.777-97.814-44.764-31.349-14.742-59.17-25.674-83.047-40.848-15.309-9.73-28.507-18.702-24.48-42.563 2.383-14.121 28.676-20.19 43.205-15.297 7.765 2.615 7.083 9.156 2.756 11.935z" fill="#FFE7EA"/><path d="M193.712 464.49a63.439 63.439 0 0 1 10.102 4.266c3.242 1.713 9.349 5.329 18.32 10.847" stroke="#000" stroke-width="3" stroke-linecap="round"/><path d="M385.118 593.779l6.203 1.533c5.603 5.89 8.99 9.165 10.163 9.826 1.101.622 2.292.855 3.571.701" stroke="#000" stroke-width="3" stroke-linecap="round"/><path d="M387.885 586.454l6.091 2.352c5.759 6.388 10.012 10.256 12.757 11.605 1.133.557 2.412.812 3.837.767" stroke="#000" stroke-width="3" stroke-linecap="round"/><path d="M397.923 584.88l8.465 7.703" stroke="#000" stroke-width="3" stroke-linecap="round" stroke-dasharray="1 1"/><path d="M365.558 602.776c4.689 1.349 8.467 1.693 11.334 1.031 1.422-.329 3.948-1.393 7.575-3.193l2.804 1.75c-.466 2.53-.616 4.157-.449 4.882.168.724.612 1.434 1.334 2.129" stroke="#000" stroke-width="3" stroke-linecap="round"/><path d="M186.186 465.871c.713-.563 1.699-.99 2.958-1.281 1.258-.29 2.623-.406 4.096-.347" stroke="#000" stroke-width="3" stroke-linecap="round"/><path d="M151.444 456.31c-4.514 7.98-6.515 14.974-6.003 20.981.706 8.275 2.485 14.855 12.368 23.377 10.964 9.453 75.357 41.466 193.179 96.039" stroke="#000" stroke-width="3" stroke-linecap="round"/><path fill-rule="evenodd" clip-rule="evenodd" d="M336.248 324.999c-5.886-17.233.989-22.528 12.724-38.221-5.53-3.845-5.44-6.553-4.676-6.716 1.081-.23 8.397 1.78 9.325 2.874.928 1.094.928 6.36 1.196 7.842.065.354 1.598-6.058 2.323-10.716-1.292-2.082-2.734-4.02-3.16-5.562-.662-2.397.248-3.846 1.192-3.456 1.55.641 3.847 3.376 7.398 8.048.632.831.372 4.726-.78 11.686 1.925-3.026 3.09-5.232 3.495-6.617-.661-3.063-.661-4.758-.369-6.539.422-2.577 1.926-3.97 2.8-4.242.875-.273 2.075 15.289 2.073 15.581-.015 2.314-5.006 10.181-14.972 23.602l104.297 165.078c12.344 18.134 14.258 29.029 5.741 32.684-12.774 5.482-29.183 6.267-43.999-13.059-29.482-38.455-54.552-84.256-84.608-172.267z" fill="#fff"/><path fill-rule="evenodd" clip-rule="evenodd" d="M330.813 321.278c-3.649-18.988 4.976-20.255 16.712-35.947-5.531-3.846-5.441-6.553-4.677-6.716 1.081-.231 8.397 1.78 9.325 2.874.928 1.094.928 6.36 1.197 7.841.064.354 1.597-6.058 2.322-10.715-1.291-2.083-2.734-4.02-3.16-5.563-.662-2.397.248-3.846 1.192-3.455 1.55.641 3.847 3.376 7.398 8.047.632.831.372 4.727-.78 11.686 1.925-3.026 3.09-5.232 3.495-6.617-.661-3.063-.661-4.758-.369-6.539.422-2.576 1.926-3.969 2.801-4.242.874-.273 2.075 15.289 2.073 15.581-.016 2.314-6.051 10.641-18.107 24.981 41.433 71.06 73.737 123.173 96.913 156.338 6.156-9.093 12.021-5.985 17.595 9.327 8.516 18.231 8.516 29.174 0 32.829-12.775 5.482-34.862 5.604-49.678-13.722-29.482-38.455-74.985-127.767-84.252-175.988z" fill="#FFE7EA"/><path d="M425.229 424.633l24.459 38.506" stroke="#000" stroke-width="3" stroke-linecap="round"/><path d="M343.303 279.505c-.251 2.185 1.399 4.305 4.948 6.358-8.711 9.8-13.289 16.944-13.735 21.431-1.924 19.372 16.588 66.566 43.09 116.871 32.359 61.424 48.738 94.225 82.066 90.288" stroke="#000" stroke-width="3" stroke-linecap="round"/><path d="M353.268 270.346c-.25 2.185.732 4.99 2.946 8.415-.994 3.302-1.68 6.527-2.055 9.676" stroke="#000" stroke-width="3" stroke-linecap="round"/><path d="M365.634 273.006c-2.519 1.938-3.31 5.25-2.373 9.938-.946 1.374-1.983 3.544-3.11 6.508" stroke="#000" stroke-width="3" stroke-linecap="round"/><path fill-rule="evenodd" clip-rule="evenodd" d="M243.725 91.807c1.751-8.198 9.038-14.347 17.76-14.347 10.031 0 18.162 8.13 18.162 18.159 0 .35-.01.7-.03 1.045 7.751-16.7 24.672-28.283 44.298-28.283 22.909 0 42.132 15.78 47.388 37.063 8.625-3.544 15.425-3.544 20.395-3.544 15.829 0 23.194 11.872 23.194 21.901s-2.198 22.252-70.893 29.663c-37.237 4.016-73.368-1.034-98.65-8.1-.285.25-.594.502-.929.758-17.91 13.72-46.469 22.077-80.71 22.077-34.824 0-65.926-13.68-77.054-22.077-.637-.48-1.085-.963-1.357-1.447-5.034.429-10.621.847-16.779 1.283C16.492 149.647.21 143.53 3.31 129.366c2.759-12.6 22.457-14.81 52.424-10.738 3.18-13.201 15.067-23.01 29.245-23.01a29.946 29.946 0 0 1 17.224 5.416c9.18-31.333 38.142-54.216 72.448-54.216 30.84 0 57.359 18.491 69.074 44.99z" fill="#EDF4FA" stroke="#4A4A4A" stroke-width="3"/><path fill-rule="evenodd" clip-rule="evenodd" d="M243.901 95.41c2.418-7.14 9.116-12.275 17.001-12.275 9.202 0 16.788 6.993 17.84 16.008 7.623-16.813 24.419-28.492 43.914-28.492 24.339 0 44.471 18.204 47.798 41.877 9.343-6.289 18.189-6.289 20.86-6.289 15.723 0 18.293 13.675 14.969 20.514-3.325 6.839-16.514 13.587-41.595 8.391-18.741-3.883-38.509-21.743-102.87-18.996-1.592 5.609-6.294 12.219-15.478 14.279-5.87 1.316-15.588 1.075-23.286-3.674-40.791 39.247-111.257 6.623-118.889-1.366-7.65 5.004-19.368 9.28-36.381 10.499-39.415 2.826-48.95 2.204-55.704 0-2.065-.674-5.723-3.994-3.997-7.973 5.124-11.818 43.751-7.4 48.92-5.189 2.452-14.112 14.639-24.835 29.303-24.835a29.4 29.4 0 0 1 17.037 5.415c9.082-31.333 37.729-54.216 71.665-54.216 31.014 0 57.612 19.113 68.893 46.322z" fill="#fff"/><path fill-rule="evenodd" clip-rule="evenodd" d="M291.56 702.789c-10.639 6.87-33.341 12.687-60.371 12.687-37.618 0-44.298-11.267-44.298-20.96 0-9.263 7.176-16.849 16.272-17.507a29.995 29.995 0 0 1-.472-5.312c0-16.479 13.362-29.839 29.844-29.839 10.23 0 19.259 5.147 24.636 12.992 4.806-5.834 11.653-9.481 19.252-9.481 3.567 0 6.968.803 10.071 2.259 8.247-13.959 23.45-23.322 40.84-23.322 19.424 0 36.119 11.682 43.441 28.403a27.548 27.548 0 0 1 16.695-5.603c15.281 0 27.669 12.386 27.669 27.664 0 .48-.013.956-.037 1.429 12.186-.076 22.404.764 24.585.764 7.757 0 14.045 6.287 14.045 14.042s-15.745 16.142-44.746 16.142c-14.64 0-30.743-3.453-43.101-7.871-8.6 11.997-22.663 19.813-38.551 19.813-14.28 0-27.084-6.313-35.774-16.3z" fill="#EDF4FA" stroke="#4A4A4A" stroke-width="3"/><path fill-rule="evenodd" clip-rule="evenodd" d="M286.889 680.876c-8.547 10.226-27.544 22.702-49.794 24.799-30.336 2.86-46.693-.057-46.693-9.496 0-9.019 6.987-16.406 15.843-17.046a29.28 29.28 0 0 1-.459-5.172c0-16.046 13.01-29.054 29.059-29.054 9.961 0 18.752 5.012 23.987 12.65 4.68-5.68 11.347-9.232 18.746-9.232 3.468 0 6.775.781 9.793 2.195 7.875-12.791 23.997-22.703 39.778-22.703 21.008 0 36.556 15.098 41.373 29.354 4.857-5.34 11.406-8.613 18.612-8.613 14.461 0 26.278 13.182 27.077 29.793 11.341-.119 20.162.737 22.335.737 7.552 0 17.959 6.122 13.674 13.673-4.284 7.551-20.312 7.551-43.184 3.418-23.561-4.258-34.923-12.932-39.864-20.469-6.17 9.476-20.826 14.471-31.2 17.051-12.313 3.062-37.981 4.769-49.083-11.885z" fill="#fff"/><path fill-rule="evenodd" clip-rule="evenodd" d="M503.996 286.893c6.178 3.99 19.359 7.367 35.054 7.367 21.843 0 25.722-6.542 25.722-12.171 0-5.378-4.167-9.783-9.448-10.164a17.42 17.42 0 0 0 .274-3.085c0-9.569-7.759-17.326-17.329-17.326-5.94 0-11.183 2.989-14.305 7.544-2.791-3.388-6.766-5.505-11.179-5.505-2.071 0-4.046.466-5.847 1.312-4.789-8.106-13.616-13.542-23.713-13.542-11.279 0-20.973 6.783-25.224 16.492a15.996 15.996 0 0 0-9.695-3.253c-8.872 0-16.065 7.191-16.065 16.062l.002.267c-4.103-.417-7.385-.601-13.319-.314-6.551.317-10.913 4.884-9.092 9.474 1.822 4.591 9.142 9.373 25.981 9.373 8.501 0 17.851-2.005 25.027-4.57 4.994 6.965 13.159 11.504 22.385 11.504 8.291 0 15.726-3.666 20.771-9.465z" fill="#EDF4FA" stroke="#4A4A4A" stroke-width="3"/><path fill-rule="evenodd" clip-rule="evenodd" d="M506.708 274.17c4.963 5.938 15.994 13.181 28.913 14.399 17.615 1.661 27.112-.033 27.112-5.514 0-5.236-4.057-9.525-9.199-9.897.175-.975.266-1.978.266-3.003 0-9.317-7.554-16.87-16.872-16.87-5.784 0-10.889 2.909-13.928 7.345-2.718-3.299-6.589-5.361-10.885-5.361-2.014 0-3.934.453-5.686 1.274-4.573-7.426-13.934-13.182-23.097-13.182-12.198 0-21.226 8.767-24.023 17.044-2.821-3.1-6.623-5.001-10.807-5.001-8.397 0-15.259 7.655-15.723 17.3-6.585-.07-11.706.428-12.968.428-4.385 0-10.428 3.554-7.94 7.939 2.487 4.384 11.794 4.384 25.074 1.984 13.681-2.472 20.279-7.508 23.148-11.885 3.582 5.502 12.092 8.402 18.115 9.901 7.15 1.778 22.054 2.769 28.5-6.901z" fill="#fff"/><path d="M151.6 643.24l81.868-28.943" stroke="#fff" stroke-width="3" stroke-linecap="round" stroke-dasharray="4 6"/><path d="M143.422 540.394c0 12.149 5.036 20.458 15.107 24.927 32.506 14.423 81.163 34.627 145.972 60.611" stroke="#fff" stroke-width="3" stroke-linecap="round" stroke-linejoin="round" stroke-dasharray="4 6"/><path clip-rule="evenodd" d="M473.96 729.29c4.601-.824 8.188-2.254 10.759-4.29-4.185-2.144-8.258-3.605-12.22-4.382-5.942-1.166-9.299 1.484-9.299 4.382 0 2.898 3.857 5.527 10.76 4.29z" stroke="#000" stroke-width="3"/><path d="M487.297 726.09c-5.231 5.885-3.213 13.482-6.361 18.793-2.099 3.54-4.711 5.376-7.837 5.506" stroke="#000" stroke-width="3" stroke-linecap="round"/><path d="M113.929 604.116c3.609 2.103 5.003 4.423 4.183 6.959-.986 3.049-2.485 6.746-4.498 11.09" stroke="#000" stroke-width="3" stroke-linecap="round"/><path d="M124.532 637.871c.162-9.307 4.791-14.658 8.759-24.465 7.319-18.089-42.718-22.548-52.767-39.216" stroke="#000" stroke-width="3" stroke-linecap="round"/><path d="M98.528 598.683c-10.199-2.172-16.742-5.442-19.63-9.811" stroke="#000" stroke-width="3" stroke-linecap="round"/><path d="M99.556 608.038c-7.59.504-13.092-.939-16.508-4.329" stroke="#000" stroke-width="3" stroke-linecap="round"/><path d="M101.122 615.323c-4.645 2.057-9.008 2.108-13.09.152" stroke="#000" stroke-width="3" stroke-linecap="round"/><path d="M532.492 610.965c-3.645 2.04-5.079 4.335-4.304 6.885.933 3.066 2.368 6.788 4.304 11.167" stroke="#000" stroke-width="3" stroke-linecap="round"/><path d="M521.302 644.53c0-9.308-4.534-14.739-8.331-24.614-7.002-18.214 43.105-21.799 53.444-38.289" stroke="#000" stroke-width="3" stroke-linecap="round"/><path d="M547.986 605.802c10.235-1.994 16.834-5.149 19.798-9.467" stroke="#000" stroke-width="3" stroke-linecap="round"/><path d="M546.795 615.137c7.58.637 13.106-.71 16.58-4.04" stroke="#000" stroke-width="3" stroke-linecap="round"/><path d="M545.102 622.394c4.608 2.138 8.97 2.265 13.085.381" stroke="#000" stroke-width="3" stroke-linecap="round"/><path clip-rule="evenodd" d="M164.081 721.545c-4.602-.825-8.188-2.255-10.759-4.29 4.185-2.144 8.258-3.605 12.22-4.383 5.942-1.166 9.299 1.485 9.299 4.383 0 2.897-3.857 5.526-10.76 4.29z" stroke="#000" stroke-width="3"/><path d="M152.891 718.345c5.231 5.884 3.214 13.481 6.361 18.792 2.099 3.541 4.711 5.376 7.837 5.506" stroke="#000" stroke-width="3" stroke-linecap="round"/></svg>